name Walk2.mot
datacolumns 19
datarows 25
range 2.52100000 2.54500000
endheader

                time	   L_ground_force_vx	   L_ground_force_vy	   L_ground_force_vz	   L_ground_force_px	   L_ground_force_py	   L_ground_force_pz	   R_ground_force_vx	   R_ground_force_vy	   R_ground_force_vz	   R_ground_force_px	   R_ground_force_py	   R_ground_force_pz	   L_ground_torque_x	   L_ground_torque_y	   L_ground_torque_z	   R_ground_torque_x	   R_ground_torque_y	   R_ground_torque_z	
          2.52100000	          0.00000000	          0.00000000	          0.00000000	          0.00000000	          0.00000000	          0.00000000	         12.52258298	         64.48448821	         14.84416600	          0.52826293	          0.00000000	          0.11504557	          0.00000000	          0.00000000	          0.00000000	          0.00000000	         -3.43756438	          0.00000000	
          2.52200000	          0.00000000	          0.00000000	          0.00000000	          0.00000000	          0.00000000	          0.00000000	         11.18803432	         60.66741933	         14.07576941	          0.53064658	          0.00000000	          0.11565384	          0.00000000	          0.00000000	          0.00000000	          0.00000000	         -3.13912644	          0.00000000	
          2.52300000	          0.00000000	          0.00000000	          0.00000000	          0.00000000	          0.00000000	          0.00000000	          9.89074119	         57.03141025	         13.37849224	          0.53267512	          0.00000000	          0.11692125	          0.00000000	          0.00000000	          0.00000000	          0.00000000	         -2.86167332	          0.00000000	
          2.52400000	          0.00000000	          0.00000000	          0.00000000	          0.00000000	          0.00000000	          0.00000000	          8.62593646	         53.57464879	         12.73105108	          0.53448642	          0.00000000	          0.11875193	          0.00000000	          0.00000000	          0.00000000	          0.00000000	         -2.59522942	          0.00000000	
          2.52500000	          0.00000000	          0.00000000	          0.00000000	          0.00000000	          0.00000000	          0.00000000	          7.39311843	         50.26072093	         12.09351077	          0.53671848	          0.00000000	          0.12078579	          0.00000000	          0.00000000	          0.00000000	          0.00000000	         -2.32550817	          0.00000000	
          2.52600000	          0.00000000	          0.00000000	          0.00000000	          0.00000000	          0.00000000	          0.00000000	          6.19017977	         47.05629983	         11.43358154	          0.53983310	          0.00000000	          0.12248305	          0.00000000	          0.00000000	          0.00000000	          0.00000000	         -2.04678674	          0.00000000	
          2.52700000	          0.00000000	          0.00000000	          0.00000000	          0.00000000	          0.00000000	          0.00000000	          5.01940473	         43.96777305	         10.75140999	          0.54358178	          0.00000000	          0.12348549	          0.00000000	          0.00000000	          0.00000000	          0.00000000	         -1.76520523	          0.00000000	
          2.52800000	          0.00000000	          0.00000000	          0.00000000	          0.00000000	          0.00000000	          0.00000000	          3.89009458	         41.04111079	         10.06980861	          0.54725757	          0.00000000	          0.12392664	          0.00000000	          0.00000000	          0.00000000	          0.00000000	         -1.49353585	          0.00000000	
          2.52900000	          0.00000000	          0.00000000	          0.00000000	          0.00000000	          0.00000000	          0.00000000	          2.80987426	         38.32124603	          9.41178369	          0.55038073	          0.00000000	          0.12437825	          0.00000000	          0.00000000	          0.00000000	          0.00000000	         -1.24277896	          0.00000000	
          2.53000000	          0.00000000	          0.00000000	          0.00000000	          0.00000000	          0.00000000	          0.00000000	          1.78071719	         35.79781424	          8.79257119	          0.55301384	          0.00000000	          0.12546320	          0.00000000	          0.00000000	          0.00000000	          0.00000000	         -1.01508141	          0.00000000	
          2.53100000	          0.00000000	          0.00000000	          0.00000000	          0.00000000	          0.00000000	          0.00000000	          0.81514780	         33.36287121	          8.20225808	          0.55557058	          0.00000000	          0.12732130	          0.00000000	          0.00000000	          0.00000000	          0.00000000	         -0.80487596	          0.00000000	
          2.53200000	          0.00000000	          0.00000000	          0.00000000	          0.00000000	          0.00000000	          0.00000000	         -0.04789404	         30.80270336	          7.58834679	          0.55840447	          0.00000000	          0.12953721	          0.00000000	          0.00000000	          0.00000000	          0.00000000	         -0.60767534	          0.00000000	
          2.53300000	          0.00000000	          0.00000000	          0.00000000	          0.00000000	          0.00000000	          0.00000000	         -0.74850245	         27.82606069	          6.87674122	          0.56148506	          0.00000000	          0.13169620	          0.00000000	          0.00000000	          0.00000000	          0.00000000	         -0.42493863	          0.00000000	
          2.53400000	          0.00000000	          0.00000000	          0.00000000	          0.00000000	          0.00000000	          0.00000000	         -1.21884559	         24.12131258	          5.99834224	          0.56438749	          0.00000000	          0.13366009	          0.00000000	          0.00000000	          0.00000000	          0.00000000	         -0.26275582	          0.00000000	
          2.53500000	          0.00000000	          0.00000000	          0.00000000	          0.00000000	          0.00000000	          0.00000000	         -1.40041438	         19.48710901	          4.89861063	          0.56651736	          0.00000000	          0.13539565	          0.00000000	          0.00000000	          0.00000000	          0.00000000	         -0.13145937	          0.00000000	
          2.53600000	          0.00000000	          0.00000000	          0.00000000	          0.00000000	          0.00000000	          0.00000000	         -1.28552010	         14.09305793	          3.59354444	          0.56756005	          0.00000000	          0.13694964	          0.00000000	          0.00000000	          0.00000000	          0.00000000	         -0.04101226	          0.00000000	
          2.53700000	          0.00000000	          0.00000000	          0.00000000	          0.00000000	          0.00000000	          0.00000000	          0.00000000	          0.00000000	          0.00000000	          0.00000000	          0.00000000	          0.00000000	          0.00000000	          0.00000000	          0.00000000	          0.00000000	          0.00000000	          0.00000000	
          2.53800000	          0.00000000	          0.00000000	          0.00000000	          0.00000000	          0.00000000	          0.00000000	          0.00000000	          0.00000000	          0.00000000	          0.00000000	          0.00000000	          0.00000000	          0.00000000	          0.00000000	          0.00000000	          0.00000000	          0.00000000	          0.00000000	
          2.53900000	          0.00000000	          0.00000000	          0.00000000	          0.00000000	          0.00000000	          0.00000000	          0.00000000	          0.00000000	          0.00000000	          0.00000000	          0.00000000	          0.00000000	          0.00000000	          0.00000000	          0.00000000	          0.00000000	          0.00000000	          0.00000000	
          2.54000000	          0.00000000	          0.00000000	          0.00000000	          0.00000000	          0.00000000	          0.00000000	          0.00000000	          0.00000000	          0.00000000	          0.00000000	          0.00000000	          0.00000000	          0.00000000	          0.00000000	          0.00000000	          0.00000000	          0.00000000	          0.00000000	
          2.54100000	          0.00000000	          0.00000000	          0.00000000	          0.00000000	          0.00000000	          0.00000000	          0.00000000	          0.00000000	          0.00000000	          0.00000000	          0.00000000	          0.00000000	          0.00000000	          0.00000000	          0.00000000	          0.00000000	          0.00000000	          0.00000000	
          2.54200000	          0.00000000	          0.00000000	          0.00000000	          0.00000000	          0.00000000	          0.00000000	          0.00000000	          0.00000000	          0.00000000	          0.00000000	          0.00000000	          0.00000000	          0.00000000	          0.00000000	          0.00000000	          0.00000000	          0.00000000	          0.00000000	
          2.54300000	          0.00000000	          0.00000000	          0.00000000	          0.00000000	          0.00000000	          0.00000000	          0.00000000	          0.00000000	          0.00000000	          0.00000000	          0.00000000	          0.00000000	          0.00000000	          0.00000000	          0.00000000	          0.00000000	          0.00000000	          0.00000000	
          2.54400000	          0.00000000	          0.00000000	          0.00000000	          0.00000000	          0.00000000	          0.00000000	          0.00000000	          0.00000000	          0.00000000	          0.00000000	          0.00000000	          0.00000000	          0.00000000	          0.00000000	          0.00000000	          0.00000000	          0.00000000	          0.00000000	
          2.54500000	          0.00000000	          0.00000000	          0.00000000	          0.00000000	          0.00000000	          0.00000000	          0.00000000	          0.00000000	          0.00000000	          0.00000000	          0.00000000	          0.00000000	          0.00000000	          0.00000000	          0.00000000	          0.00000000	          0.00000000	          0.00000000	
